<svg xmlns="http://www.w3.org/2000/svg" width="1920" height="1080" viewBox="0 0 1920 1080">
  <g fill="#4A90E2" fill-rule="evenodd" transform="translate(-170 -204)">
    <circle cx="1483" cy="1260" r="180"/>
    <circle cx="2090" cy="1318" r="180"/>
    <circle cx="1127" cy="1041" r="180"/>
    <circle cx="558" cy="1151" r="180"/>
    <circle cx="261" cy="1001" r="180"/>
    <circle cx="426" cy="900" r="180"/>
    <circle cx="180" cy="720" r="180"/>
    <circle cx="517" cy="446" r="180"/>
    <circle cx="605" cy="720" r="180"/>
    <circle cx="834" cy="924" r="180"/>
    <circle cx="1448" cy="886" r="180"/>
    <circle cx="1763" cy="989" r="180"/>
    <circle cx="2046" cy="924" r="180"/>
    <circle cx="1843" cy="720" r="180"/>
    <circle cx="2023" cy="492" r="180"/>
    <circle cx="1763" cy="360" r="180"/>
    <circle cx="1524" cy="564" r="180"/>
    <circle cx="1448" cy="234" r="180"/>
    <circle cx="1127" cy="180" r="180"/>
    <circle cx="833" cy="414" r="180"/>
    <circle cx="1176" cy="492" r="180"/>
    <circle cx="246" cy="414" r="180"/>
    <circle cx="925" cy="759" r="180"/>
    <circle cx="1242" cy="720" r="180"/>
  </g>
</svg>
