<svg xmlns="http://www.w3.org/2000/svg" xmlns:xlink="http://www.w3.org/1999/xlink" width="140" height="56" viewBox="0 0 140 56">
  <defs>
    <circle id="rok-logo-a" cx="28" cy="28" r="28"/>
  </defs>
  <g fill="none" fill-rule="evenodd">
    <mask id="rok-logo-b" fill="#fff">
      <use xlink:href="#rok-logo-a"/>
    </mask>
    <use fill="#4A90E2" xlink:href="#rok-logo-a"/>
    <path fill="#FFF" fill-rule="nonzero" d="M52,4 L52,52 L4,52 L4,4 L52,4 Z M49.999,6 L6,6 L6,49.999 L49.999,49.999 L49.999,6 Z" mask="url(#rok-logo-b)"/>
    <path fill="#FFF" fill-rule="nonzero" d="M43,13 L43,43 L13,43 L13,13 L43,13 Z M41,15 L15,15 L15,41 L41,41 L41,15 Z" mask="url(#rok-logo-b)"/>
    <path fill="#FFF" fill-rule="nonzero" d="M34,22 L34,34 L22,34 L22,22 L34,22 Z M32,24 L24,24 L24,32 L32,32 L32,24 Z" mask="url(#rok-logo-b)"/>
    <path fill="#000" fill-rule="nonzero" d="M9.73302682,29.25 L9.73302682,21.7575862 L12.6681992,21.7575862 L17.4571648,29.25 L24.7178544,29.25 L19.3109579,20.7148276 C22.6709579,19.1313793 24.6792337,15.7713793 24.6792337,11.9865517 C24.6792337,6.73413793 20.8171648,2.21551724 14.8309579,2.21551724 L3.4764751,2.21551724 L3.4764751,29.25 L9.73302682,29.25 Z M14.0199234,16.6596552 L9.73302682,16.6596552 L9.73302682,7.31344828 L14.0199234,7.31344828 C16.6461303,7.31344828 18.3454406,9.4762069 18.3454406,11.9865517 C18.3454406,14.4968966 16.6461303,16.6596552 14.0199234,16.6596552 Z M37.8102682,29.752069 C44.2985441,29.752069 48.160613,25.272069 48.160613,19.9424138 C48.160613,14.6127586 44.2985441,10.1327586 37.8102682,10.1327586 C31.3992337,10.1327586 27.4985441,14.6127586 27.4985441,19.9424138 C27.4985441,25.272069 31.3992337,29.752069 37.8102682,29.752069 Z M37.8102682,24.6927586 C35.1454406,24.6927586 33.4075096,22.5686207 33.4075096,19.9424138 C33.4075096,17.3548276 35.1454406,15.192069 37.8102682,15.192069 C40.5137165,15.192069 42.2902682,17.3548276 42.2902682,19.9424138 C42.2902682,22.5686207 40.5137165,24.6927586 37.8102682,24.6927586 Z M58.7813027,29.25 L58.7813027,21.4486207 L64.4971648,29.25 L71.5261303,29.25 L64.3040613,19.9424138 L71.564751,10.6348276 L64.5357855,10.6348276 L58.7813027,18.5134483 L58.7813027,2.21551724 L52.8723372,2.21551724 L52.8723372,29.25 L58.7813027,29.25 Z" transform="translate(67 12)"/>
  </g>
</svg>
